<svg width="50" height="50" viewBox="0 0 50 50" fill="none" xmlns="http://www.w3.org/2000/svg">
<path fill-rule="evenodd" clip-rule="evenodd" d="M35.2217 21.9417C35.2217 21.9417 35.4136 22.9166 35.4791 22.9259C39.0143 23.4301 41.6667 25.4921 41.6667 29.1666C41.6667 33.1937 38.4021 36.4583 34.375 36.4583H15.625C11.598 36.4583 8.33337 33.1937 8.33337 29.1666C8.33337 25.4921 11.0513 22.4524 14.5865 21.9483C14.652 21.939 14.7161 21.937 14.7784 21.9417C15.7176 17.1538 19.937 13.5416 25 13.5416C30.0631 13.5416 34.2825 17.1538 35.2217 21.9417Z" fill="#F3F3F3"/>
<path d="M16.1765 36.4583C11.8449 36.4583 8.33337 33.0382 8.33337 28.8194C8.33337 25.1344 11.0124 22.0589 14.5769 21.3395C15.8023 16.8498 20.0045 13.5416 25 13.5416C30.6474 13.5416 35.2809 17.7694 35.746 23.1527C39.0904 23.5998 41.6667 26.394 41.6667 29.7742C41.6667 33.4657 38.5941 36.4583 34.804 36.4583H16.1765Z" stroke="#231815" stroke-width="2" stroke-linecap="round" stroke-linejoin="round"/>
</svg>
