<svg width="25" height="25" viewBox="0 0 25 25" fill="none" xmlns="http://www.w3.org/2000/svg">
<path fill-rule="evenodd" clip-rule="evenodd" d="M12.2395 4.16675C13.6709 4.16675 14.8313 5.31773 14.8313 6.73753V13.3069C16.2438 14.1701 17.1874 15.7187 17.1874 17.4881C17.1874 20.1986 14.9722 22.3959 12.2395 22.3959C9.50688 22.3959 7.29163 20.1986 7.29163 17.4881C7.29163 15.7187 8.23527 14.1701 9.64777 13.3069V6.73753C9.64777 5.31773 10.8081 4.16675 12.2395 4.16675ZM10.8258 14.0206C9.44428 14.5753 8.4697 15.9188 8.4697 17.4881C8.4697 19.5532 10.1575 21.2274 12.2395 21.2274C14.3216 21.2274 16.0094 19.5532 16.0094 17.4881C16.0094 15.9188 15.0348 14.5753 13.6532 14.0206V6.73753C13.6532 5.96309 13.0203 5.33528 12.2395 5.33528C11.4588 5.33528 10.8258 5.96309 10.8258 6.73753V14.0206Z" fill="#231815"/>
<path fill-rule="evenodd" clip-rule="evenodd" d="M12.2396 6.77094C12.6711 6.77094 13.0209 7.12071 13.0209 7.55219V14.4214C14.3687 14.7683 15.3646 15.9918 15.3646 17.448C15.3646 19.1738 13.9655 20.573 12.2396 20.573C10.5137 20.573 9.11462 19.1738 9.11462 17.448C9.11462 15.9918 10.1105 14.7683 11.4584 14.4214V7.55219C11.4584 7.12071 11.8081 6.77094 12.2396 6.77094Z" fill="#F25022"/>
</svg>
