<svg width="50" height="50" viewBox="0 0 50 50" fill="none" xmlns="http://www.w3.org/2000/svg">
<path fill-rule="evenodd" clip-rule="evenodd" d="M35.2217 21.9417C35.2217 21.9417 35.4136 22.9166 35.4791 22.9259C39.0143 23.4301 41.6667 25.4921 41.6667 29.1666C41.6667 33.1937 38.4021 36.4583 34.375 36.4583H15.625C11.598 36.4583 8.33337 33.1937 8.33337 29.1666C8.33337 25.4921 11.0513 22.4524 14.5865 21.9483C14.652 21.939 14.7161 21.937 14.7784 21.9417C15.7176 17.1538 19.937 13.5416 25 13.5416C30.0631 13.5416 34.2825 17.1538 35.2217 21.9417Z" fill="#F3F3F3"/>
<path d="M34.375 36.4583H34.804C38.5942 36.4583 41.6667 33.4657 41.6667 29.7742C41.6667 26.394 39.0904 23.5998 35.746 23.1527C35.2809 17.7694 30.6474 13.5416 25 13.5416C20.0045 13.5416 15.8023 16.8498 14.5769 21.3395C11.0124 22.0589 8.33337 25.1344 8.33337 28.8194C8.33337 32.8577 11.5507 36.164 15.625 36.4397" stroke="#231815" stroke-width="2" stroke-linecap="round" stroke-linejoin="round"/>
<path d="M18.7499 39.2667L21.354 34.7561M23.9582 38.225L26.5624 33.7145M28.1249 40.3084L30.729 35.7978" stroke="#2196F3" stroke-width="2" stroke-linecap="round" stroke-linejoin="round"/>
</svg>
